<svg id="Layer_1" data-name="Layer 1" xmlns="http://www.w3.org/2000/svg" viewBox="0 0 1417.32 1417.32"><defs><style>.cls-1{fill:#32323c;}.cls-2{fill:#c72026;}</style></defs><title>HIVE-Artwork</title><path class="cls-1" d="M721,838.57a167.38,167.38,0,0,0,.51-19.17,154.82,154.82,0,0,0-1.69-18.53l-32.28-5.35L676.61,765l21.51-24.66a163.4,163.4,0,0,0-23.06-29.83l-29.27,14.69-20.45-13.9V630.72h26.47V596H597.24V724.81A106.92,106.92,0,0,1,616,734.32h0l-.44-.26a106.82,106.82,0,1,1-114.63.26h.15a107.23,107.23,0,0,1,16.5-8.62V596H465.25v34.75h22.59v82.69l-.47.35-21.54,16.48-30.05-13a161.79,161.79,0,0,0-21.35,31.06l22.87,23.39-9.22,31.09L396.14,810a164.42,164.42,0,0,0-.61,19.69,176.61,176.61,0,0,0,1.6,18l32.29,5.44,10.84,30.57-21.65,24.6a165.11,165.11,0,0,0,23.05,30L471,923.66,497.76,942l-3,32.64a163.34,163.34,0,0,0,36.18,10.67L546,956.19l32.45-.9,16.72,28.2a163.77,163.77,0,0,0,35.55-12.71l-4.87-32.4,25.7-19.84,30.08,12.89A162.23,162.23,0,0,0,703,900.3L680,877l9.1-31.19Z"/><path class="cls-2" d="M605.6,835.42c-18-1.63-34-8.54-50.44-14.9a122,122,0,0,0-67.32-6.38,163.5,163.5,0,0,0-20.55,5.06c0,.53,0,1.07,0,1.6a93.15,93.15,0,0,0,185.64,11.13A143,143,0,0,1,605.6,835.42Z"/><circle class="cls-2" cx="597.32" cy="785.13" r="17.2"/><circle class="cls-2" cx="541.55" cy="762.52" r="5.96"/><circle class="cls-2" cx="565.67" cy="704.63" r="8.93"/><circle class="cls-2" cx="553.88" cy="584.12" r="14.63"/><circle class="cls-2" cx="617.07" cy="537.38" r="23.37"/><circle class="cls-2" cx="545.23" cy="465.36" r="33.34"/><path class="cls-1" d="M160.89,585.05H142V574h18.9V542.12h12.27V574h21.05v11.1H173.16v79.56H160.89Z"/><path class="cls-1" d="M206.64,542.12H218.9v42.27A24.65,24.65,0,0,1,230.59,575,41.52,41.52,0,0,1,246.42,572a42.16,42.16,0,0,1,17.07,3.56,38.45,38.45,0,0,1,13.92,10.36A34.53,34.53,0,0,1,285,600.39a71.71,71.71,0,0,1,1.82,16.49v47.73H274.59V616.88a67.9,67.9,0,0,0-.91-11.36,26.19,26.19,0,0,0-14.58-18.89,30.88,30.88,0,0,0-13.18-2.9,28.13,28.13,0,0,0-12.43,3,26.8,26.8,0,0,0-10,8.12,21.43,21.43,0,0,0-4.06,10.53q-.57,5.71-.58,11.52v47.73H206.64Z"/><path class="cls-1" d="M316.53,623.67a26.74,26.74,0,0,0,3.23,12.19,36.09,36.09,0,0,0,7.79,9.94,37.07,37.07,0,0,0,10.77,6.71A32.2,32.2,0,0,0,350.67,655a38.66,38.66,0,0,0,9.95-1.32,36.78,36.78,0,0,0,9.28-3.9,35.31,35.31,0,0,0,7.79-6.3,28.75,28.75,0,0,0,5.47-8.37h12.76a43.74,43.74,0,0,1-6.79,12.6,49.48,49.48,0,0,1-23.21,16.66,43,43,0,0,1-14.09,2.4,47.74,47.74,0,0,1-18.64-3.65A45.7,45.7,0,0,1,318.1,653,49,49,0,0,1,308,637.93a46.22,46.22,0,0,1-3.73-18.57,47.16,47.16,0,0,1,3.65-18.56,46.63,46.63,0,0,1,10-15,47.89,47.89,0,0,1,15-10.11A46.14,46.14,0,0,1,351.5,572a45.43,45.43,0,0,1,20.14,4.56,48.61,48.61,0,0,1,16.33,13,45.88,45.88,0,0,1,5.13,8,45.1,45.1,0,0,1,3.15,8.12,53,53,0,0,1,1.66,8.62q.49,4.47.66,9.44Zm69.78-11.1a34.22,34.22,0,0,0-4.39-11.27,37.15,37.15,0,0,0-7.88-9.2A36.65,36.65,0,0,0,363.68,586a32.51,32.51,0,0,0-12-2.24,35.12,35.12,0,0,0-12.27,2.15,37.28,37.28,0,0,0-10.52,6,34.88,34.88,0,0,0-8,9.12,33.64,33.64,0,0,0-4.39,11.6Z"/><polygon class="cls-1" points="939.14 743.23 935.93 743.23 935.93 892.06 939.14 892.06 958.06 892.06 961.27 892.06 961.27 743.23 958.06 743.23 939.14 743.23"/><path class="cls-1" d="M894.81,765.32a62.8,62.8,0,0,0-22.63-16.83,68.33,68.33,0,0,0-27.63-5.77,67.64,67.64,0,0,0-25.62,5,43.41,43.41,0,0,0-13.6,8.61V696.7H780V892.06h25.35V815.22a171.34,171.34,0,0,1,.88-17.45,29.89,29.89,0,0,1,5.64-14.64A38.23,38.23,0,0,1,826,771.58a42.06,42.06,0,0,1,36.74-.11,37.26,37.26,0,0,1,20.68,26.77,101.67,101.67,0,0,1,1.36,17v76.84h25.35V815.22a114.27,114.27,0,0,0-2.9-26.18A56.71,56.71,0,0,0,894.81,765.32Z"/><path class="cls-1" d="M1245.28,842.08a41.6,41.6,0,0,1-7.83,12,52.08,52.08,0,0,1-11.31,9.15,53,53,0,0,1-13.5,5.66c-10.83,2.89-21.9,2.63-32.34-1.65a54.57,54.57,0,0,1-15.7-9.78A52.87,52.87,0,0,1,1153.27,843a38.48,38.48,0,0,1-4.38-14.06h126.44l-.11-3.32c-.17-5.15-.52-10.14-1-14.82a87,87,0,0,0-2.66-13.8,74.12,74.12,0,0,0-5.07-13.1,75.09,75.09,0,0,0-8.32-12.88,78.43,78.43,0,0,0-26.26-20.91,73.59,73.59,0,0,0-32.47-7.36,74.9,74.9,0,0,0-29.91,6A77.41,77.41,0,0,0,1145.36,765a77.34,77.34,0,0,0-16,84,79,79,0,0,0,16.26,24.25,74.09,74.09,0,0,0,24.31,16.3,77.19,77.19,0,0,0,30,5.87,69.68,69.68,0,0,0,22.78-3.88A79.5,79.5,0,0,0,1260,864.73a70.73,70.73,0,0,0,11-20.35l1.45-4.25h-26.29ZM1155,792.35a51.15,51.15,0,0,1,11.54-13.24,55,55,0,0,1,15.34-8.69,50.41,50.41,0,0,1,35.16.11,53.7,53.7,0,0,1,26.55,22.33,49.62,49.62,0,0,1,5.46,12.5h-99.57A48.83,48.83,0,0,1,1155,792.35Z"/><polygon class="cls-1" points="1044.99 856.47 998.81 745.79 971.38 745.79 1032.88 892.06 1056.83 892.06 1118.6 745.79 1091.17 745.79 1044.99 856.47"/></svg>